<svg width="34" height="34" viewBox="0 0 34 34" fill="none" xmlns="http://www.w3.org/2000/svg">
<g clip-path="url(#clip0_2723_17407)">
<rect x="1.41667" y="5.66602" width="31.1667" height="22.6667" rx="2" fill="#FFEBD6"/>
<path fill-rule="evenodd" clip-rule="evenodd" d="M12.4583 5.66602H11.5V14.8875C10.9913 14.4389 10.3197 14.166 9.58333 14.166C7.99547 14.166 6.70833 15.4345 6.70833 16.9993C6.70833 17.7251 6.9852 18.3869 7.44041 18.8882H0L0 19.8327H9.58333H11.5L11.5 28.3327H12.4583L12.4583 19.8327H13.8958H32.5833V18.8882H15.8127C16.1134 18.4936 16.2917 18.0031 16.2917 17.4716C16.2917 16.1676 15.219 15.1105 13.8958 15.1105C13.3565 15.1105 12.8587 15.2861 12.4583 15.5825V5.66602ZM12.4583 17.4716V18.8882H13.8958C14.6897 18.8882 15.3333 18.2539 15.3333 17.4716C15.3333 16.6892 14.6897 16.0549 13.8958 16.0549C13.102 16.0549 12.4583 16.6892 12.4583 17.4716ZM11.5 17.4716V16.9993C11.5 15.9561 10.6419 15.1105 9.58333 15.1105C8.52476 15.1105 7.66667 15.9561 7.66667 16.9993C7.66667 18.0426 8.52476 18.8882 9.58333 18.8882H11.5V17.4716Z" fill="url(#paint0_radial_2723_17407)"/>
</g>
<defs>
<radialGradient id="paint0_radial_2723_17407" cx="0" cy="0" r="1" gradientUnits="userSpaceOnUse" gradientTransform="translate(16.2917 16.9993) scale(16.2917 60.2083)">
<stop stop-color="#F26B3E"/>
<stop offset="1" stop-color="#FC8A65"/>
</radialGradient>
<clipPath id="clip0_2723_17407">
<rect x="1.41667" y="5.66602" width="31.1667" height="22.6667" rx="2" fill="white"/>
</clipPath>
</defs>
</svg>
